<?xml version="1.0" encoding="iso-8859-1"?>
<!-- Generator: Adobe Illustrator 19.0.0, SVG Export Plug-In . SVG Version: 6.00 Build 0)  -->
<svg version="1.1" id="Layer_1" xmlns="http://www.w3.org/2000/svg" xmlns:xlink="http://www.w3.org/1999/xlink" x="0px" y="0px"
	 viewBox="0 0 512 512" style="enable-background:new 0 0 512 512;" xml:space="preserve">
<g>
	<g>
		<path d="M437.02,74.98C388.667,26.628,324.38,0,256,0S123.333,26.628,74.98,74.98C26.628,123.333,0,187.619,0,256
			s26.628,132.667,74.98,181.02C123.333,485.372,187.62,512,256,512s132.667-26.628,181.02-74.98
			C485.372,388.667,512,324.381,512,256S485.372,123.333,437.02,74.98z M239.304,477.984c-51.946-3.87-98.974-25.652-134.935-59.166
			l134.935-108.555V477.984z M239.304,267.406L81.647,394.241C51.455,356.242,33.391,308.193,33.391,256
			c0-117.131,90.935-213.418,205.913-221.984V267.406z M272.696,477.984V310.263l134.935,108.555
			C371.67,452.332,324.641,474.114,272.696,477.984z M430.353,394.241L272.696,267.406V34.016
			C387.674,42.582,478.609,138.869,478.609,256C478.609,308.193,460.545,356.242,430.353,394.241z"/>
	</g>
</g>
<g>
</g>
<g>
</g>
<g>
</g>
<g>
</g>
<g>
</g>
<g>
</g>
<g>
</g>
<g>
</g>
<g>
</g>
<g>
</g>
<g>
</g>
<g>
</g>
<g>
</g>
<g>
</g>
<g>
</g>
</svg>
