<svg width="36px" height="36px" viewBox="0 0 36 36" xmlns="http://www.w3.org/2000/svg" xmlns:xlink="http://www.w3.org/1999/xlink" aria-hidden="true" role="img" class="iconify iconify--twemoji" preserveAspectRatio="xMidYMid meet"><path fill="#880082" d="M0 27a4 4 0 0 0 4 4h28a4 4 0 0 0 4-4v-.5H0v.5z"></path><path fill="#3558A0" d="M0 22.07h36v4.6H0z"></path><path fill="#138F3E" d="M0 17.83h36v4.5H0z"></path><path fill="#FAD220" d="M0 13.5h36V18H0z"></path><path fill="#FF5000" d="M0 9.17h36v4.5H0z"></path><path fill="#FF000E" d="M32 5H4a4 4 0 0 0-4 4v.33h36V9a4 4 0 0 0-4-4z"></path></svg>