<?xml version="1.0" standalone="no"?>
<svg width="648" height="1048" viewBox="1 1 648 1048" xmlns="http://www.w3.org/2000/svg">
<title>Woman-power symbol (clenched fist in Venus sign)</title>
<g transform="translate(0,1025)scale(1,-1)" fill="none" stroke="rgb(204,51,102)">
<circle stroke-width="90" cx="325" cy="700" r="255"/>
<path stroke-width="100" d="M325,0V445M95,230H555"/>
<path fill="rgb(204,51,102)" stroke="none" d="M375,445v90c70,31,118,83,118,133
c0,24-18,46-48,46c-25,0-40-7-65-7c-50,0-42,24-53,24c-11,0-22-13-22-33
c0-30,25-45,50-45c15,0,20,6,29,6c6,0,9-1,9-4c0-5-11-14-25-14c-50,0-56,34-118,34
c-38,0-62-24-62-63c0-49,32-70,87-77v-90Z
M469,792c0,20-24,52-39,52c-15,0-25-84-25-94c0-15,15-33,30-33c11,0,34,55,34,75Z
M404,836c0,25-39,37-53,37c-19,0-25-50-25-100c0-20,9-46,34-46c25,0,44,56,44,109Z
M320,841c0,14-6,27-17,27c-20,0-58-25-58-50c0-50,10-100,35-100c27,0,40,95,40,123Z
M241,718c0,45-6,98-21,98c-20,0-45-16-45-38c0-42,20-95,50-95c11,0,16,8,16,35Z"/></g></svg>
